Patient4_TMGait_0pt7_02_left_18_EMG.mot
version=1
nRows=33
nColumns=33
inDegrees=no
endheader
time	1LAddLong	2LGlutMax	3LGlutMed	4LIliopsoas	5LSemiMemb	6LBicFemLong	7LRecFem	8LVastMed	9LVastLat	10LGasMed	11LTibAnt	12lTibPost	13LPeroneusLong	14LSol	15LExtDigLong	16LFlexDigLong	17RAddLong	18RGlutMax	19RGlutMed	20RIliopsoas	21RSemiMemb	22RBicFemLong	23RRecFem	24RVastMed	25RVastLat	26RGasMed	27RTibAnt	28RTibPost	29RPeroneusLong	30RSol	31RExtDigLong	32RFlexDigLong
20.35	0.010834	0.15335	0.028992	0.000763	0.075378	-0.062714	-0.054169	0.003204	0.1561	-0.1265	-0.051575	0.010834	0.075989	-0.04364	0.7457	0.003662	-0.038147	-0.26016	-0.52521	0.002441	-0.044098	0.33768	-0.31723	0.11047	0.44952	0.030365	0.16083	0.001221	1.0638	0.18326	-0.002136	-0.009308
20.351	0.010223	0.1236	-0.025635	0.008392	0.054474	0.014954	-0.030975	0.008698	0.15243	-0.08606	-0.071259	0.004425	0.15213	0.015564	-0.40192	0.003052	-0.016174	-0.21042	-0.63538	-0.040131	-0.075226	0.18784	0.18555	0.11307	0.44632	0.001984	0.58075	-0.00885	-1.8318	0.14847	-0.003052	-0.017853
20.352	0.020447	0.14999	-0.058136	-0.004578	0.022278	0.018921	-0.009003	0.006866	0.13809	-0.077515	-0.15839	0.006409	0.2359	0.004425	-0.23224	0.004578	-0.018768	-0.17975	-0.3804	-0.053558	-0.094604	0.2153	0.4126	0.077057	0.3714	0.010071	0.70786	0.001831	-1.5717	0.059357	-0.003967	-0.021515
20.353	0.00885	0.17471	-0.084229	-0.007477	0.030823	-0.002899	-0.029907	0.005035	0.13428	-0.021057	0.022278	0.013428	0.16052	-0.048676	-0.22858	0.00824	-0.026703	-0.21851	-0.041656	-0.016327	-0.072327	0.023346	0.11383	0.10239	0.29541	0.012512	0.18433	0.002441	-0.83801	-0.20615	-0.001831	-0.015564
20.354	0.0177	0.15671	-0.075226	0.031433	0.012207	-0.030823	-0.033875	0.003357	0.13199	0.027161	0.1503	0.002747	0.058289	-0.17014	-0.25345	-0.00946	-0.023651	-0.18021	-0.014496	0.013428	-0.04837	0.14801	-0.10956	0.14572	0.13809	0.021362	-0.095673	-0.00824	0.20889	-0.34042	-0.002747	-0.009308
20.355	0.016022	0.18585	-0.06897	0.034485	0.00885	-0.046692	-0.011749	0.003815	0.12695	0.022583	0.12314	0.003815	0.07019	-0.25604	-0.20111	-0.001068	-0.024414	-0.099945	0.21652	-0.0737	-0.050507	-0.28046	-0.34195	0.11459	-0.076752	0.028839	-0.35538	-0.015411	1.3876	-0.31845	-0.002289	0.003967
20.356	0.018005	0.19486	-0.065308	0.013885	0.007324	-0.034943	-0.03891	-0.005341	0.1294	-0.018311	0.09079	0.010071	0.086365	-0.16495	-0.028534	-0.005188	0.012207	-0.02121	0.3801	-0.094147	-0.11124	-0.80994	-0.086517	0.062714	-0.60226	0.021362	-1.0207	-0.021667	1.5906	-0.17258	-0.000763	0.001373
20.357	-0.005798	0.19394	-0.068817	0.009613	-0.021362	-0.006561	-0.031738	0.002136	0.12878	-0.039063	0.10193	0.014496	0.13336	-0.002899	0.031891	0.009918	0.016937	0.014343	0.28351	0.070343	-0.14221	-0.64072	-0.23865	-0.02655	-0.57465	0.023346	-1.0779	0.004883	0.40298	-0.002441	-0.004272	0.010376
20.358	0.00061	0.23941	-0.049896	0.018311	-0.043488	-0.013733	-0.022125	0.005035	0.12283	-0.046539	0.061035	0.014648	0.1181	-0.046234	0.12528	0.015411	0.019226	-0.016785	0.15045	0.24262	-0.066528	-0.075989	-0.26337	-0.055695	-0.28412	0.004425	-0.23468	0.043793	-1.1174	0.049133	-0.000916	-0.006256
20.359	0.014191	0.21179	-0.082092	0.014191	-0.061493	-0.046539	-0.018311	0.001831	0.11612	-0.036011	-0.037994	0.015564	0.082855	-0.10071	0.13336	0.009613	0.005951	0.014191	0.14297	0.215	0.002441	0.31067	-0.31906	0.007477	-0.14801	-0.004425	0.29007	0.050201	-0.728	-0.070953	-0.00412	-0.003052
20.36	0.028381	0.21088	-0.088959	0.001221	-0.037231	-0.056305	-0.027618	0.001526	0.11719	-0.062256	-0.060577	0.005493	0.092773	-0.09491	0.059357	0.009155	0.030518	0.071869	0.51483	0.067291	-0.031433	0.43381	-0.32776	0.012512	-0.14862	-0.006866	0.44815	-0.23758	0.46616	-0.16129	-0.002594	-0.002136
20.361	0.02182	0.17212	-0.080261	0.002747	0.034485	-0.076447	-0.029144	-0.002594	0.10788	-0.069885	-0.13168	0.015869	0.12604	-0.095062	-0.091248	-0.002899	0.036316	0.072784	0.41168	-0.065918	-0.027008	0.44525	-0.1799	-0.080261	-0.12466	-0.027313	0.41748	-0.27145	0.14557	-0.08255	-0.001831	-0.011749
20.362	0.062561	0.13306	-0.077057	-0.00473	0.027008	-0.059204	-0.031891	0.002899	0.10666	-0.057526	-0.09964	0.010223	0.13931	-0.1001	-0.12787	-0.005341	0.02594	0.062561	0.39551	-0.15106	-0.025482	0.22934	0.083923	-0.12131	-0.033875	-0.041504	0.23468	0.17563	-0.80322	0.17029	-0.009155	-0.005798
20.363	0.062714	0.13916	-0.058594	0.008087	0.007172	-0.058441	-0.022888	-0.003662	0.10437	-0.059204	-0.066223	0.01297	0.088806	-0.067139	-0.055084	0.009155	0.014191	0.075836	0.73807	-0.084381	-0.028687	0.069733	0.30731	-0.12528	0.15549	-0.037079	0.082245	0.062103	0.074463	0.46341	-0.008392	-0.003052
20.364	0.04364	0.12497	-0.080261	-0.00885	-0.003815	-0.048218	-0.025787	0.003815	0.097809	-0.010071	-0.04715	0.006256	0.075226	-0.0354	0.027313	0.000763	0.009918	0.076294	0.93506	-0.017853	-0.04715	0.075226	0.25986	-0.24719	0.36819	-0.000916	0.10666	-0.01297	0.19394	0.61493	-0.003815	-0.005341
20.365	0.012665	0.14206	-0.07843	-0.009003	-0.019684	-0.037079	-0.023041	0.003967	0.088959	-0.009918	-0.056152	0.010681	0.068665	-0.01709	0.044403	0.001373	-0.025482	0.02594	0.76279	-0.016632	-0.027161	0.053101	0.008545	-0.002136	0.40726	0.007324	0.14771	-0.058136	-0.29236	0.55695	-0.004578	-0.00824
20.366	0.024719	0.13214	-0.074158	0.000305	-0.032043	-0.075531	-0.016022	0.002747	0.095062	-0.028229	-0.007019	0.006561	0.072479	-0.035248	0.031891	0.004272	-0.048218	0.063324	0.47409	0.005646	-0.03891	0.040283	-0.3241	0.081024	0.4158	-0.15762	0.17029	-0.075378	-0.28931	0.22324	-0.005493	-0.01297
20.367	0.023651	0.14755	-0.061035	-0.011749	-0.002289	-0.091553	-0.022888	-0.00061	0.097351	-0.057678	0.034332	0.007324	0.067749	-0.005951	0.069275	0.010834	-0.018616	0.10651	0.26382	-0.15625	-0.070038	0.003815	-0.50446	-0.16739	0.29587	-0.22018	0.12619	-0.071411	-0.097809	-0.067596	-0.00351	-0.010376
20.368	0.021057	0.088043	-0.1091	0.001526	0.010529	-0.070953	-0.024261	0.00885	0.086975	-0.10635	0.061188	0.010376	0.063782	-0.019989	0.1181	0.004425	-0.014648	0.095825	-0.079651	-0.22644	-0.075378	0.08667	-0.4837	-0.1059	0.24445	-0.24262	-0.006714	0.027924	-0.2948	-0.28595	-0.001831	-0.018311
20.369	0.019379	0.15396	-0.15488	-0.009613	0.003967	-0.077667	-0.024261	0.005341	0.084686	-0.11688	0.050354	0.007477	0.024261	0.005188	0.13626	0.001678	0.010681	0.11704	-0.51376	-0.20691	-0.087128	0.074768	-0.233	-0.027771	0.091705	-0.24033	0.04837	0.23819	-0.69061	-0.45959	-0.002747	-0.021667
20.37	0.021362	0.12955	-0.13611	-0.009766	0.007172	-0.07782	-0.046844	0.005951	0.086212	-0.07782	0.040741	0.009918	-0.044098	0.014954	0.086975	-0.012817	0.002899	0.054626	-0.77682	-0.047302	-0.072937	0.058289	-0.11185	0.13931	-0.23102	-0.15289	0.10925	-0.070496	-0.495	-0.52506	-0.000763	-0.02594
20.371	0.014801	0.11658	-0.10376	-0.005188	-0.014954	-0.049438	-0.021057	0.001221	0.081787	-0.065155	0.031586	0.005798	-0.090179	-0.018768	0.001831	0.001984	0.016174	-0.11505	-0.51331	0.10986	-0.065765	-0.054932	-0.031891	0.090027	-0.48996	0.11032	0.099182	-0.080261	-0.88409	-0.23926	-0.001221	-0.011444
20.372	0.015564	0.1059	-0.041809	0.018616	-0.004272	-0.033875	-0.013428	0.001831	0.072174	-0.059814	0.028076	0.002747	-0.11414	-0.002441	0.005646	-0.000305	0.008087	-0.059052	-0.11353	0.30319	-0.040741	-0.13611	0.17868	0.097809	-0.40009	0.21896	-0.003204	-0.043488	0.46951	-0.048828	-0.001831	-0.01236
20.373	0.014343	0.091248	0.011902	0.030212	-0.019836	-0.05661	-0.024872	0.000763	0.065002	-0.032196	0.032501	-0.001984	-0.072174	0.033264	0.14511	0.014038	0.00824	-0.045929	-0.046234	0.35172	-0.038757	-0.3598	0.081482	0.068207	-0.084229	0.003357	-0.054321	-0.17593	0.58731	-0.3717	0.00061	-0.00946
20.374	0.020599	0.048065	-0.008392	0.022278	-0.033417	-0.067902	-0.020447	-0.00061	0.058594	-0.001373	0.022736	0.007782	0.021515	0.056	0.067596	0.014801	-0.002441	-0.06012	0.11414	0.27252	-0.040283	-0.37476	0.068817	0.11688	0.00946	-0.11414	-0.092621	-0.33737	-0.13641	-0.39124	0.000153	-0.001526
20.375	0.020142	0.081787	-0.0354	0.020599	0.016632	-0.02533	-0.024567	0.003815	0.048218	0.028839	0.062103	-0.001068	0.090179	0.069122	0.050201	0.013275	-0.001831	0.1738	0.69534	0.15137	-0.039368	-0.31387	0.013275	0.082092	0.034485	0.050049	-0.12589	-0.057678	0.20096	-0.14511	-0.004883	-0.000763
20.376	0.019531	0.070343	-0.035858	-0.002594	0.017395	-0.024109	-0.024567	0.002136	0.061798	0.028992	0.060883	0.004272	0.14404	-0.044708	-0.038757	0.005341	-0.009155	0.16296	0.31845	0.18387	-0.061188	0.079803	0.15564	0.052185	0.047913	0.093842	-0.03418	0.13977	-0.32028	0.41504	0.000458	0.006104
20.377	0.026093	0.094757	-0.02655	0.012054	0.022125	0.005493	-0.042267	-0.001831	0.066681	0.014954	0.075684	0.010681	0.17731	-0.098724	-0.10193	-0.015106	0.000916	-0.000305	0.016937	0.1622	-0.067596	0.27664	0.32257	-0.13489	0.056763	0.063477	0.098572	0.33554	-0.15945	0.069122	0.00351	-0.015717
20.378	0.015411	0.098419	-0.046692	-0.003052	0.014801	0.033722	-0.024719	0.004425	0.062714	-0.011292	0.052948	0.012207	0.14557	-0.079041	-0.21698	-0.012207	-0.009308	0.028687	0.85877	0.052643	-0.046844	0.36835	0.3894	-0.22919	0.039063	0.067749	0.011749	0.16037	0.35828	-0.21896	-0.003662	-0.006409
20.379	0.002899	0.10529	-0.060425	-0.007629	-0.037537	0.054169	-0.024872	0.010223	0.06134	-0.047302	0.058746	0.014191	0.081024	-0.025177	-0.035095	-0.002289	-0.037842	0.13687	0.44022	-0.013885	0.009003	0.37674	0.20554	-0.26138	0.07019	0.039368	0.04715	0.12451	-0.099945	-0.32318	-0.004425	-0.006104
20.38	0.006866	0.12497	-0.006104	0.013428	-0.084839	0.005493	-0.038757	0.006104	0.06485	-0.06134	0.017242	0.011139	0.04776	-0.13809	0.16678	0.006256	-0.023804	0.29785	0.033112	-0.032654	0.023499	0.46585	0.19791	-0.26779	0.052185	0.042572	0.10346	0.081635	0.044556	-0.058594	-0.006561	-0.007324
20.381	0.005646	0.14328	0.039673	0.011902	-0.068512	-0.093079	-0.04837	0.006409	0.076294	-0.1088	-0.050354	0.012207	0.11322	-0.28427	0.34012	0.01236	-0.009766	0.20401	-0.031738	-0.078278	0.054169	0.27756	0.15228	-0.23209	-0.020752	0.047302	0.14465	-0.005798	0.89706	0.26901	0.000305	-0.010986
20.382	0.011902	0.15091	-0.016937	0.001068	0.012054	-0.090942	-0.059967	0.000916	0.069275	-0.11963	-0.022125	0.016785	0.1004	-0.2977	-0.07782	0.005646	-0.030823	0.14236	0.45273	-0.08606	0.058136	-0.22675	-0.19623	-0.098877	-0.096436	0.034485	0.35202	0.002747	0.4184	0.21759	-0.001373	-0.004883
